<svg width="161" height="161" viewBox="0 0 161 161" fill="none" xmlns="http://www.w3.org/2000/svg">
<g clip-path="url(#clip0_39_118)">
<path d="M57.2305 162.258C72.1984 162.258 84.2734 150.183 84.2734 135.215V108.172H57.2305C42.2625 108.172 30.1875 120.247 30.1875 135.215C30.1875 150.183 42.2625 162.258 57.2305 162.258Z" fill="#0ACF83"/>
<path d="M30.1875 81.1289C30.1875 66.1609 42.2625 54.0859 57.2305 54.0859H84.2734V108.172H57.2305C42.2625 108.172 30.1875 96.0969 30.1875 81.1289Z" fill="#A259FF"/>
<path d="M30.1875 27.043C30.1875 12.075 42.2625 0 57.2305 0H84.2734V54.0859H57.2305C42.2625 54.0859 30.1875 42.0109 30.1875 27.043Z" fill="#F24E1E"/>
<path d="M84.2734 0H111.316C126.284 0 138.359 12.075 138.359 27.043C138.359 42.0109 126.284 54.0859 111.316 54.0859H84.2734V0Z" fill="#FF7262"/>
<path d="M138.359 81.1289C138.359 96.0969 126.284 108.172 111.316 108.172C96.3484 108.172 84.2734 96.0969 84.2734 81.1289C84.2734 66.1609 96.3484 54.0859 111.316 54.0859C126.284 54.0859 138.359 66.1609 138.359 81.1289Z" fill="#1ABCFE"/>
</g>
<defs>
<clipPath id="clip0_39_118">
<rect width="161" height="161" fill="white"/>
</clipPath>
</defs>
</svg>
