<svg width="160" height="161" viewBox="0 0 160 161" fill="none" xmlns="http://www.w3.org/2000/svg">
<path d="M155.921 73.4286L87.0263 4.10555C83.0613 0.113254 76.6263 0.113254 72.655 4.10555L58.35 18.5025L76.4975 36.7634C80.7163 35.3307 85.5513 36.2917 88.9125 39.674C92.2913 43.0776 93.2388 47.9843 91.78 52.2433L109.27 69.8439C113.501 68.376 118.385 69.3244 121.763 72.7305C126.488 77.4813 126.488 85.1829 121.763 89.9362C120.64 91.0666 119.306 91.9633 117.839 92.5751C116.372 93.1869 114.799 93.5018 113.211 93.5018C111.622 93.5018 110.05 93.1869 108.582 92.5751C107.115 91.9633 105.782 91.0666 104.659 89.9362C102.972 88.2373 101.823 86.0745 101.354 83.7198C100.886 81.3652 101.12 78.9238 102.028 76.7027L85.7175 60.2908L85.715 103.485C86.8985 104.072 87.9789 104.848 88.9138 105.785C93.6363 110.535 93.6363 118.234 88.9138 122.995C84.19 127.746 76.5338 127.746 71.815 122.995C67.0925 118.236 67.0925 110.537 71.815 105.785C72.9475 104.646 74.293 103.744 75.7738 103.131V59.5361C74.2913 58.9257 72.9453 58.0229 71.815 56.8808C68.2375 53.2835 67.3763 48.0007 69.2113 43.5782L51.32 25.5752L4.08002 73.1079C2.17416 75.0263 1.10352 77.6278 1.10352 80.3403C1.10352 83.0529 2.17416 85.6544 4.08002 87.5727L72.9763 156.896C76.9438 160.888 83.3763 160.888 87.35 156.896L155.923 87.8947C157.828 85.9758 158.898 83.3741 158.898 80.6614C158.898 77.9488 157.827 75.3472 155.921 73.4286Z" fill="#F34F29"/>
</svg>
