<svg width="90" height="90" viewBox="0 0 90 90" fill="none" xmlns="http://www.w3.org/2000/svg">
<path d="M71.4375 18.4125C67.999 14.9404 63.9038 12.1873 59.3907 10.3138C54.8775 8.4403 50.0366 7.48377 45.15 7.49996C24.675 7.49996 7.9875 24.1875 7.9875 44.6625C7.9875 51.225 9.7125 57.6 12.9375 63.225L7.6875 82.5L27.375 77.325C32.8125 80.2875 38.925 81.8625 45.15 81.8625C65.625 81.8625 82.3125 65.175 82.3125 44.7C82.3125 34.7625 78.45 25.425 71.4375 18.4125ZM45.15 75.5625C39.6 75.5625 34.1625 74.0625 29.4 71.25L28.275 70.575L16.575 73.65L19.6875 62.25L18.9375 61.0875C15.8533 56.1639 14.216 50.4722 14.2125 44.6625C14.2125 27.6375 28.0875 13.7625 45.1125 13.7625C53.3625 13.7625 61.125 16.9875 66.9375 22.8375C69.8161 25.7019 72.0972 29.1095 73.6486 32.8624C75.2 36.6154 75.9907 40.639 75.975 44.7C76.05 61.725 62.175 75.5625 45.15 75.5625ZM62.1 52.4625C61.1625 52.0125 56.5875 49.7625 55.7625 49.425C54.9 49.125 54.3 48.975 53.6625 49.875C53.025 50.8125 51.2625 52.9125 50.7375 53.5125C50.2125 54.15 49.65 54.225 48.7125 53.7375C47.775 53.2875 44.775 52.275 41.25 49.125C38.475 46.65 36.6375 43.6125 36.075 42.675C35.55 41.7375 36 41.25 36.4875 40.7625C36.9 40.35 37.425 39.675 37.875 39.15C38.325 38.625 38.5125 38.2125 38.8125 37.6125C39.1125 36.975 38.9625 36.45 38.7375 36C38.5125 35.55 36.6375 30.975 35.8875 29.1C35.1375 27.3 34.35 27.525 33.7875 27.4875H31.9875C31.35 27.4875 30.375 27.7125 29.5125 28.65C28.6875 29.5875 26.2875 31.8375 26.2875 36.4125C26.2875 40.9875 29.625 45.4125 30.075 46.0125C30.525 46.65 36.6375 56.025 45.9375 60.0375C48.15 61.0125 49.875 61.575 51.225 61.9875C53.4375 62.7 55.4625 62.5875 57.075 62.3625C58.875 62.1 62.5875 60.1125 63.3375 57.9375C64.125 55.7625 64.125 53.925 63.8625 53.5125C63.6 53.1 63.0375 52.9125 62.1 52.4625Z" fill="#00F449"/>
</svg>
