<svg width="90" height="90" viewBox="0 0 90 90" fill="none" xmlns="http://www.w3.org/2000/svg">
<path d="M72.2625 19.9875C67.2749 17.6625 61.875 15.975 56.25 15C56.151 15.0014 56.0567 15.0418 55.9875 15.1125C55.3125 16.35 54.525 17.9625 54 19.2C48.0337 18.3006 41.9662 18.3006 36 19.2C35.475 17.925 34.6875 16.35 33.975 15.1125C33.9375 15.0375 33.825 15 33.7125 15C28.0875 15.975 22.725 17.6625 17.7 19.9875C17.6625 19.9875 17.625 20.025 17.5875 20.0625C7.38745 35.325 4.57495 50.175 5.96245 64.875C5.96245 64.95 5.99995 65.025 6.07495 65.0625C12.825 70.0125 19.3125 73.0125 25.725 75C25.8375 75.0375 25.95 75 25.9875 74.925C27.4875 72.8625 28.8375 70.6875 30 68.4C30.075 68.25 30 68.1 29.85 68.0625C27.7125 67.2375 25.6875 66.2625 23.7 65.1375C23.55 65.0625 23.55 64.8375 23.6625 64.725C24.075 64.425 24.4875 64.0875 24.9 63.7875C24.975 63.7125 25.0875 63.7125 25.1625 63.75C38.0625 69.6375 51.975 69.6375 64.725 63.75C64.8 63.7125 64.9125 63.7125 64.9874 63.7875C65.4 64.125 65.8124 64.425 66.2249 64.7625C66.3749 64.875 66.3749 65.1 66.1874 65.175C64.2374 66.3375 62.175 67.275 60.0375 68.1C59.8875 68.1375 59.85 68.325 59.8875 68.4375C61.0875 70.725 62.4375 72.9 63.9 74.9625C64.0125 75 64.1249 75.0375 64.2374 75C70.6874 73.0125 77.1749 70.0125 83.9249 65.0625C83.9999 65.025 84.0374 64.95 84.0374 64.875C85.6874 47.8875 81.2999 33.15 72.4124 20.0625C72.3749 20.025 72.3374 19.9875 72.2625 19.9875ZM31.95 55.9125C28.0875 55.9125 24.8625 52.35 24.8625 47.9625C24.8625 43.575 28.0125 40.0125 31.95 40.0125C35.925 40.0125 39.075 43.6125 39.0375 47.9625C39.0375 52.35 35.8875 55.9125 31.95 55.9125ZM58.0875 55.9125C54.225 55.9125 51 52.35 51 47.9625C51 43.575 54.15 40.0125 58.0875 40.0125C62.0625 40.0125 65.2124 43.6125 65.1749 47.9625C65.1749 52.35 62.0625 55.9125 58.0875 55.9125Z" fill="#6A41FF"/>
</svg>
