<svg width="160" height="160" viewBox="0 0 160 160" fill="none" xmlns="http://www.w3.org/2000/svg">
<path d="M65.7332 13.3334C60.6765 13.3334 55.8268 15.3422 52.2511 18.9179C48.6754 22.4936 46.6666 27.3432 46.6666 32.4V43.6H75.2666C77.8666 43.6 79.9999 47.4 79.9999 50H32.3999C27.3431 50 22.4934 52.0088 18.9177 55.5845C15.3421 59.1602 13.3333 64.0099 13.3333 69.0667V94.2734C13.3333 99.3302 15.3421 104.18 18.9177 107.756C22.4934 111.331 27.3431 113.34 32.3999 113.34H40.2666V95.4734C40.2578 92.9727 40.7428 90.4948 41.6937 88.1819C42.6446 85.869 44.0427 83.7666 45.8079 81.9952C47.5731 80.2238 49.6706 78.8184 51.9802 77.8593C54.2897 76.9003 56.7659 76.4067 59.2666 76.4067H94.2666C104.8 76.4067 113.333 67.9334 113.333 57.4V32.4C113.333 27.3432 111.324 22.4936 107.749 18.9179C104.173 15.3422 99.3234 13.3334 94.2666 13.3334H65.7332ZM60.9333 24.0667C63.5999 24.0667 65.7332 24.8667 65.7332 28.8C65.7332 32.7334 63.5999 34.74 60.9333 34.74C58.3333 34.74 56.1999 32.74 56.1999 28.8067C56.1999 24.8734 58.3333 24.0667 60.9333 24.0667Z" fill="#0288D1"/>
<path d="M119.727 46.6666V64.5333C119.735 67.0335 119.249 69.5106 118.298 71.8227C117.346 74.1348 115.948 76.2365 114.183 78.0071C112.418 79.7778 110.321 81.1827 108.012 82.1413C105.703 83.0999 103.227 83.5933 100.727 83.5933H65.7334C63.2327 83.5845 60.7548 84.0695 58.442 85.0204C56.1291 85.9713 54.0267 87.3695 52.2553 89.1346C50.4839 90.8998 49.0784 92.9973 48.1194 95.3069C47.1604 97.6164 46.6667 100.093 46.6667 102.593V127.593C46.6667 132.65 48.6756 137.5 52.2512 141.075C55.8269 144.651 60.6766 146.66 65.7334 146.66H94.2668C99.3224 146.66 104.171 144.652 107.747 141.078C111.322 137.504 113.332 132.656 113.333 127.6V116.4H84.7267C82.1267 116.4 80.0001 112.6 80.0001 110H127.6C132.657 110 137.507 107.991 141.082 104.415C144.658 100.84 146.667 95.9901 146.667 90.9333V65.7333C146.667 60.6765 144.658 55.8268 141.082 52.2511C137.507 48.6754 132.657 46.6666 127.6 46.6666H119.727ZM55.4667 76.7533L55.4401 76.78L55.6934 76.7533H55.4667ZM99.0667 125.26C101.667 125.26 103.8 127.26 103.8 131.193C103.8 131.815 103.678 132.43 103.44 133.005C103.202 133.579 102.853 134.101 102.414 134.54C101.974 134.98 101.452 135.328 100.878 135.566C100.304 135.804 99.6883 135.927 99.0667 135.927C96.4001 135.927 94.2668 135.127 94.2668 131.193C94.2668 127.26 96.4001 125.26 99.0667 125.26Z" fill="#FDD835"/>
</svg>
