<svg width="160" height="160" viewBox="0 0 160 160" fill="none" xmlns="http://www.w3.org/2000/svg">
<path d="M79.9999 67.4C86.8666 67.4 92.4666 73 92.4666 80C92.4666 86.6667 86.8666 92.3334 79.9999 92.3334C73.1332 92.3334 67.5333 86.6667 67.5333 80C67.5333 73 73.1332 67.4 79.9999 67.4ZM49.1333 133.333C53.3333 135.867 62.5333 132 73.1333 122C69.6666 118.067 66.2666 113.8 63.0666 109.333C57.6947 108.815 52.354 108.014 47.0666 106.933C43.6666 121.2 44.9333 131 49.1333 133.333ZM53.8666 95.0667L51.9333 91.6667C51.1999 93.6 50.4666 95.5334 49.9999 97.4C51.7999 97.8 53.7999 98.1334 55.8666 98.4667L53.8666 95.0667ZM97.4666 90L102.867 80L97.4666 70C95.4666 66.4667 93.3333 63.3334 91.3999 60.2C87.7999 60 83.9999 60 79.9999 60C75.9999 60 72.1999 60 68.5999 60.2C66.6666 63.3334 64.5333 66.4667 62.5333 70L57.1332 80L62.5333 90C64.5333 93.5334 66.6666 96.6667 68.5999 99.8C72.1999 100 75.9999 100 79.9999 100C83.9999 100 87.7999 100 91.3999 99.8C93.3333 96.6667 95.4666 93.5334 97.4666 90ZM79.9999 45.2C78.7333 46.6667 77.3999 48.2 76.0666 50H83.9333C82.5999 48.2 81.2666 46.6667 79.9999 45.2ZM79.9999 114.8C81.2666 113.333 82.5999 111.8 83.9333 110H76.0666C77.3999 111.8 78.7333 113.333 79.9999 114.8ZM110.8 26.6667C106.667 24.1334 97.4666 28 86.8666 38C90.3332 41.9334 93.7333 46.2 96.9333 50.6667C102.4 51.2 107.8 52 112.933 53.0667C116.333 38.8 115.067 29 110.8 26.6667ZM106.133 64.9334L108.067 68.3334C108.8 66.4 109.533 64.4667 110 62.6C108.2 62.2 106.2 61.8667 104.133 61.5334L106.133 64.9334ZM115.8 17.9334C125.6 23.5334 126.667 38.2667 122.533 55.4667C139.467 60.4667 151.667 68.7334 151.667 80C151.667 91.2667 139.467 99.5334 122.533 104.533C126.667 121.733 125.6 136.467 115.8 142.067C106.067 147.667 92.7999 141.267 79.9999 129.067C67.1999 141.267 53.9333 147.667 44.1333 142.067C34.3999 136.467 33.3333 121.733 37.4666 104.533C20.5333 99.5334 8.33325 91.2667 8.33325 80C8.33325 68.7334 20.5333 60.4667 37.4666 55.4667C33.3333 38.2667 34.3999 23.5334 44.1333 17.9334C53.9333 12.3334 67.1999 18.7334 79.9999 30.9334C92.7999 18.7334 106.067 12.3334 115.8 17.9334ZM113.867 80C116.133 85 118.133 90 119.8 95.0667C133.8 90.8667 141.667 84.8667 141.667 80C141.667 75.1334 133.8 69.1334 119.8 64.9334C118.133 70 116.133 75 113.867 80ZM46.1333 80C43.8666 75 41.8666 70 40.1999 64.9334C26.1999 69.1334 18.3333 75.1334 18.3333 80C18.3333 84.8667 26.1999 90.8667 40.1999 95.0667C41.8666 90 43.8666 85 46.1333 80ZM106.133 95.0667L104.133 98.4667C106.2 98.1334 108.2 97.8 110 97.4C109.533 95.5334 108.8 93.6 108.067 91.6667L106.133 95.0667ZM86.8666 122C97.4666 132 106.667 135.867 110.8 133.333C115.067 131 116.333 121.2 112.933 106.933C107.8 108 102.4 108.8 96.9333 109.333C93.7333 113.8 90.3332 118.067 86.8666 122ZM53.8666 64.9334L55.8666 61.5334C53.7999 61.8667 51.7999 62.2 49.9999 62.6C50.4666 64.4667 51.1999 66.4 51.9333 68.3334L53.8666 64.9334ZM73.1333 38C62.5333 28 53.3333 24.1334 49.1333 26.6667C44.9333 29 43.6666 38.8 47.0666 53.0667C52.354 51.9857 57.6947 51.1846 63.0666 50.6667C66.2666 46.2 69.6666 41.9334 73.1333 38Z" fill="#315FFF"/>
</svg>
