<svg width="161" height="161" viewBox="0 0 161 161" fill="none" xmlns="http://www.w3.org/2000/svg">
<rect width="161" height="161" fill="#374151"/>
<path d="M110.05 36.9025C109.279 36.9025 108.756 36.9964 108.212 37.1239V37.2111H108.306C108.668 37.9088 109.285 38.4186 109.742 39.0425C110.104 39.7603 110.412 40.4781 110.775 41.1891L110.869 41.0885C111.499 40.6458 111.808 39.9347 111.808 38.8546C111.539 38.5394 111.499 38.2241 111.271 37.9155C111.003 37.466 110.426 37.2446 110.064 36.8891L110.05 36.9025ZM38.7071 125.412H32.4885C32.3123 115.529 31.708 105.659 30.6772 95.8285H30.6235L21.1648 125.412H16.4354L7.04375 95.8285H6.97667C6.2425 105.674 5.80626 115.54 5.66854 125.412H0C0.371194 112.219 1.288 99.8535 2.75042 88.3152H10.465L19.4206 115.578H19.4743L28.5104 88.3152H35.856C37.4795 101.839 38.4365 114.205 38.7272 125.412H38.7071ZM65.6545 98.0423C63.1187 111.768 59.7824 121.741 55.6456 127.961C52.4122 132.765 48.8724 135.164 45.0263 135.159C44.0067 135.159 42.741 134.851 41.2294 134.234V130.92C41.9718 131.036 42.8349 131.094 43.8188 131.094C45.6167 131.094 47.0634 130.598 48.1591 129.605C49.4784 128.397 50.1381 127.045 50.1381 125.546C50.1381 124.504 49.6238 122.394 48.5952 119.214L41.7929 98.0423H47.8975L52.7745 113.874C53.8791 117.47 54.3375 119.981 54.1497 121.407C56.833 114.261 58.7001 106.472 59.7511 98.0423H65.6545ZM148.335 125.412H130.692V88.3152H136.629V120.851H148.335V125.412ZM126.063 126.318L119.247 122.964C119.856 122.458 120.426 121.899 120.958 121.287C123.86 117.888 125.309 112.85 125.305 106.173C125.305 93.8965 120.486 87.7562 110.849 87.7517C106.126 87.7517 102.436 89.3103 99.7797 92.4274C96.8907 95.8352 95.4462 100.855 95.4462 107.488C95.4417 114.013 96.7252 118.798 99.2968 121.843C101.64 124.594 105.18 125.969 109.916 125.969C111.687 125.969 113.308 125.75 114.78 125.312L123.668 130.49L126.083 126.318H126.063ZM103.979 117.986C102.472 115.567 101.718 111.685 101.718 106.34C101.718 96.9935 104.558 92.3201 110.238 92.3201C113.217 92.3201 115.401 93.4381 116.792 95.6742C118.295 98.1026 119.046 101.955 119.046 107.233C119.046 116.656 116.206 121.369 110.527 121.374C107.544 121.374 105.357 120.256 103.966 118.02L103.979 117.986ZM92.8568 115.135C92.8568 118.292 91.7029 120.877 89.3953 122.89C87.0965 124.902 84.0018 125.909 80.1109 125.909C76.4683 125.909 72.9733 124.755 69.5587 122.454L71.1486 119.261C74.0824 120.732 76.7433 121.466 79.1315 121.461C81.3587 121.461 83.1096 120.969 84.3841 119.985C85.0228 119.506 85.5384 118.883 85.8883 118.165C86.2382 117.448 86.4125 116.658 86.3966 115.86C86.3966 113.646 84.8537 111.768 82.0496 110.191C79.4468 108.762 74.2478 105.784 74.2478 105.784C71.4169 103.724 70.0082 101.517 70.0082 97.888C70.0082 94.8737 71.0591 92.4475 73.1611 90.6094C75.2675 88.749 77.9956 87.821 81.3453 87.8255C84.7844 87.8255 87.9149 88.7423 90.7369 90.5759L89.308 93.7691C87.0583 92.7755 84.6297 92.2505 82.1704 92.2261C80.2697 92.2261 78.8073 92.6868 77.7831 93.6081C77.2674 94.0382 76.8515 94.5754 76.5642 95.1824C76.2769 95.7894 76.1252 96.4517 76.1195 97.1232C76.1195 99.3236 77.6892 101.215 80.5872 102.825C83.2236 104.268 88.55 107.32 88.55 107.32C91.4547 109.366 92.897 111.546 92.897 115.155L92.8568 115.135ZM155.794 75.8779C152.205 75.784 149.421 76.1463 147.094 77.1391C146.423 77.4074 145.349 77.4074 145.256 78.2594C145.624 78.6149 145.678 79.1986 145.993 79.695C146.53 80.5939 147.456 81.7947 148.315 82.4253C149.245 83.1721 150.2 83.8653 151.179 84.5049C152.923 85.5782 154.902 86.2155 156.613 87.2955C157.585 87.9261 158.578 88.7244 159.564 89.3952C160.054 89.7306 160.369 90.3344 161 90.5491V90.4149C160.691 90.0124 160.598 89.4288 160.296 88.9793C159.846 88.5299 159.397 88.1273 158.954 87.6846C157.639 85.9473 156.067 84.4205 154.292 83.1565C152.856 82.1771 149.717 80.8086 149.126 79.165L149.039 79.0711C150.018 78.9839 151.186 78.6284 152.125 78.36C153.648 77.9575 155.043 78.0447 156.619 77.6489C157.335 77.4611 158.051 77.2509 158.766 77.0184V76.6158C157.961 75.8108 157.357 74.7174 156.526 73.9661C154.201 71.9393 151.726 70.0936 149.12 68.4451C147.711 67.5462 145.926 66.9693 144.444 66.2045C143.907 65.9362 143.008 65.802 142.7 65.3526C141.895 64.3731 141.425 63.0717 140.855 61.9045C139.539 59.3484 138.315 56.7461 137.185 54.1027C136.38 52.3451 135.891 50.5942 134.905 48.9842C130.276 41.3569 125.265 36.7348 117.557 32.2134C115.9 31.2742 113.914 30.8717 111.814 30.3753C110.694 30.3216 109.574 30.2411 108.46 30.1942C107.722 29.8789 107.011 29.0269 106.381 28.6177C103.832 27.0077 97.2306 23.5194 95.3522 28.1347C94.1448 31.0461 97.1434 33.9173 98.1832 35.3931C98.9546 36.4195 99.9273 37.5935 100.464 38.7473C100.779 39.5255 100.867 40.3238 101.182 41.1355C101.893 43.1077 102.57 45.3081 103.51 47.1529C103.999 48.092 104.536 49.0781 105.167 49.9234C105.529 50.4131 106.146 50.6412 106.287 51.4462C105.656 52.3585 105.616 53.6868 105.254 54.8004C103.644 59.8786 104.274 66.1576 106.555 69.8941C107.273 71.0077 108.984 73.4764 111.271 72.5305C113.284 71.7255 112.841 69.1763 113.418 66.929C113.552 66.3924 113.465 66.0368 113.74 65.6746V65.7752C114.37 67.0364 115.001 68.2371 115.578 69.4983C116.96 71.6986 119.375 73.9795 121.394 75.5023C122.467 76.3073 123.319 77.7026 124.661 78.199V78.0649H124.56C124.272 77.6758 123.89 77.4879 123.527 77.1726C122.678 76.339 121.893 75.442 121.179 74.4893C119.295 71.9028 117.619 69.1706 116.168 66.3186C115.43 64.9098 114.813 63.3937 114.223 62.0051C113.954 61.4684 113.954 60.6634 113.505 60.3951C112.834 61.3745 111.848 62.2265 111.358 63.434C110.506 65.366 110.419 67.7407 110.097 70.2094C109.916 70.2564 110.003 70.2094 109.916 70.3033C108.48 69.9545 107.991 68.4652 107.454 67.2175C106.112 64.031 105.891 58.9126 107.052 55.2431C107.367 54.3039 108.709 51.3389 108.172 50.4399C107.89 49.588 107.005 49.0983 106.515 48.4073C105.886 47.5075 105.347 46.5481 104.905 45.5429C103.832 43.0339 103.295 40.2567 102.128 37.7478C101.591 36.5872 100.652 35.373 99.8871 34.3064C99.0351 33.0989 98.096 32.2469 97.4184 30.8181C97.197 30.3284 96.8818 29.5166 97.2373 28.98C97.3312 28.6177 97.519 28.4769 97.8679 28.3762C98.4582 27.8932 100.115 28.5238 100.699 28.7921C102.356 29.463 103.751 30.0936 105.14 31.0327C105.77 31.4755 106.448 32.3274 107.253 32.5488H108.192C109.628 32.8641 111.244 32.6427 112.586 33.0385C114.967 33.8033 117.114 34.9169 119.039 36.1244C124.972 39.9132 129.798 45.2039 133.026 51.4596C133.563 52.4927 133.798 53.4386 134.287 54.5119C135.227 56.7256 136.387 58.9595 137.34 61.0995C138.279 63.2126 139.184 65.366 140.533 67.1169C141.204 68.056 143.9 68.5457 145.108 69.0354C146 69.4379 147.389 69.8069 148.194 70.2966C149.737 71.2358 151.239 72.3091 152.688 73.3422C153.426 73.852 155.66 74.9723 155.794 75.8779Z" fill="#CCCCCC"/>
</svg>
