<svg width="160" height="161" viewBox="0 0 160 161" fill="none" xmlns="http://www.w3.org/2000/svg">
<g clip-path="url(#clip0_39_124)">
<path d="M122.5 0H37.5C16.7893 0 0 16.8943 0 37.7344V123.266C0 144.106 16.7893 161 37.5 161H122.5C143.211 161 160 144.106 160 123.266V37.7344C160 16.8943 143.211 0 122.5 0Z" fill="#023430"/>
<path d="M106.983 67.6647C100.397 38.4325 86.6724 30.6504 83.1712 25.1493C81.7266 22.7263 80.4476 20.2072 79.343 17.6094C79.158 20.2068 78.818 21.8419 76.6243 23.8116C72.2199 27.7631 53.5137 43.1021 51.9393 76.3165C50.4724 107.285 74.5643 126.381 77.7468 128.355C80.1943 129.567 83.1749 128.381 84.6293 127.268C96.2424 119.248 112.11 97.8666 106.996 67.6647" fill="#10AA50"/>
<path d="M80.3406 111.864C79.7344 119.529 79.3 123.983 77.76 128.363C77.76 128.363 78.7706 135.661 79.4806 143.391H81.9925C82.5925 137.947 83.5073 132.544 84.7325 127.208C81.4806 125.598 80.4656 118.59 80.3406 111.864Z" fill="#B8C4C2"/>
<path d="M84.7282 127.212C81.4419 125.684 80.4913 118.529 80.345 111.864C81.1573 100.869 81.3943 89.8385 81.055 78.8183C80.8825 73.0361 81.1363 25.2619 79.6394 18.2672C80.6628 20.6366 81.8427 22.9343 83.1713 25.1449C86.6725 30.6504 100.402 38.4325 106.983 67.6647C112.11 97.8151 96.3288 119.14 84.7282 127.212Z" fill="#12924F"/>
</g>
<defs>
<clipPath id="clip0_39_124">
<rect width="160" height="161" fill="white"/>
</clipPath>
</defs>
</svg>
