<svg width="161" height="161" viewBox="0 0 161 161" fill="none" xmlns="http://www.w3.org/2000/svg">
<path fill-rule="evenodd" clip-rule="evenodd" d="M85.8735 6.13147C84.2653 5.11576 82.4022 4.57666 80.5001 4.57666C78.598 4.57666 76.7349 5.11576 75.1267 6.13147L18.1059 42.1485C16.6709 43.0548 15.4885 44.3094 14.6686 45.7954C13.8488 47.2815 13.4181 48.9508 13.4167 50.648V110.339C13.4167 113.787 15.1877 117 18.1059 118.845L75.1267 154.855C76.7349 155.871 78.598 156.41 80.5001 156.41C82.4022 156.41 84.2653 155.871 85.8735 154.855L142.894 118.845C144.329 117.939 145.512 116.684 146.332 115.198C147.151 113.712 147.582 112.043 147.583 110.345V50.648C147.583 48.9496 147.153 47.279 146.333 45.7917C145.513 44.3043 144.33 43.0487 142.894 42.1418L85.8735 6.13147ZM90.5894 93.4404C87.8922 96.9037 84.1806 99.4381 79.9731 100.69C75.7657 101.941 71.2724 101.847 67.1207 100.421C62.9691 98.9955 59.3665 96.3086 56.8161 92.7358C54.2656 89.1631 52.8946 84.883 52.8946 80.4933C52.8946 76.1037 54.2656 71.8236 56.8161 68.2509C59.3665 64.6781 62.9691 61.9912 67.1207 60.5652C71.2724 59.1392 75.7657 59.0455 79.9731 60.2971C84.1806 61.5486 87.8922 64.083 90.5894 67.5463L109.01 57.0209C103.977 49.5168 96.6651 43.829 88.1534 40.7964C79.6416 37.7637 70.3806 37.5467 61.7362 40.1775C53.0917 42.8082 45.5215 48.1473 40.1421 55.4074C34.7627 62.6675 31.8589 71.4642 31.8589 80.5C31.8589 89.5359 34.7627 98.3326 40.1421 105.593C45.5215 112.853 53.0917 118.192 61.7362 120.823C70.3806 123.453 79.6416 123.236 88.1534 120.204C96.6651 117.171 103.977 111.483 109.01 103.979L90.5894 93.4404ZM98.948 77.1459V72.1146H105.656V77.1459H110.688V83.8542H105.656V88.8855H98.948V83.8542H93.9167V77.1459H98.948ZM122.427 88.8855V83.8542H117.396V77.1459H122.427V72.1146H129.135V77.1459H134.167V83.8542H129.135V88.8855H122.427Z" fill="#49ADF8"/>
</svg>
